<svg xmlns="http://www.w3.org/2000/svg" viewBox="0 0 5930.08 2591.57"><g data-name="layer-2"><g data-name="layer-1"><path d="M977.52 779.51c-55 5.19-109.26 13-163.15 22.08l212.87-442.83a100.83 100.83 0 0010.41-44.25 6414.6 6414.6 0 011230.52-114.64C2397 200.29 2383.41.45 2254.84 0 1508.87-2.4 769.5 122.87 65.51 369.49c-121.7 42.63-58.33 232.59 63.56 189.89a6394.56 6394.56 0 01673.33-195Q683.72 611.23 565 858.14a2315.33 2315.33 0 00-416.82 166.15c-114.69 59-3.85 226 109.67 167.59a1961.26 1961.26 0 01187.09-84L60 1908.78c-55.78 116 123.27 205.7 179.22 89.32q233.58-485.94 467.18-971.89a2068.4 2068.4 0 01284.44-46.86c128-12.09 115.47-212-13.32-199.84M4926.32 2258.17c-1353.22-157.91-2755.76-144.44-4091.27 140.94-126 26.92-61.27 216.57 63.57 189.89 1299.36-277.66 2673-287.85 3989.21-134.27 127 14.83 166.93-181.58 38.49-196.56"/><path d="M5737 1179.17C5626.5 1370 5461 1565.28 5234.64 1615c-143.44 31.47-230.92-7.78-252.66-121.52 17.32 6 37 7.73 58.56 2.5 214.95-52 437-165.24 557.6-358.35 82.09-131.45 108.36-301.14-51-386.54-297.51-159.42-632.58 186.41-726 438.13-38.54 103.89-54.2 221-38.2 326.16-65 45.65-369.28 208.93-396.32 70.05-18.86-96.85 119.24-263.29 166.64-338.33 49.91-79 132.07-177.16 134.36-275.58 2.93-126.1-119.44-154.81-224.3-145.31-66.17 6-172.21 44-275.12 65.31 1.42-17.44 2.53-34.79 2.87-51.9 2.92-143.76-60.94-280.94-216.92-309.1-191.35-34.55-309.64 171.81-260.42 339.13 37.51 127.53 129.21 188.47 236.87 211.63-49.65 134.36-129.7 267-189.59 358-45.56 69.21-131.26 209.61-220.5 230-95.6 21.89-112.53-135.5-124.66-207.8-.23-1.31-.74-2.39-1-3.67 117.56-197.17 228.34-544.89-91.62-601C3236 841.48 3150.77 862.92 3071 907q156.26-316.53 328.92-624.83c63.08-112.48-116.3-201.53-179.22-89.32-144 256.72-280.84 518.23-406.45 784.41-32.19 68.22-90.3 175.15-141.5 292.85-128.61 191.69-300 379.05-525.6 444.86-94 27.43-249.38 44.62-304.39-58-11.72-21.88-19.14-45.06-24.22-68.79 19.64 9.54 42.9 13.27 69 6.94 228.77-55.36 469.36-181.85 581.34-399.22 71.47-138.74 56.91-291-100.42-356.48-340.39-141.57-680.72 276.74-734.26 569.44-4.06 22.18-6.61 44-8.44 65.51-61 75.72-125 153-200.84 213.3-41.63 33.09-89.08 63.17-139.66 80.29-113.59 38.45-111.87-70.7-80.41-149.38 80.18-200.55 183.06-394.47 273.76-590.5 54-116.75-125-206.56-179.21-89.33-83.2 179.86-170.2 358.25-250.66 539.25-56 126-140.47 325.11-25.57 446.05 95.92 101 269.84 61.41 380.52 10.83 101.61-46.44 186.8-119.75 263.2-201.49 58.8 122.12 176.57 202.12 351.83 201.66 214.76-.57 400.83-102.84 556.39-245.06 8 68.64 35.87 127.61 93.64 168.65 210.69 149.66 435.62-14.77 592.93-193.82 31.48 86.9 81.9 164.41 170.57 197.64 131.47 49.25 257.41-37.55 347.37-126.66 161.79-160.26 306.38-405.14 372.88-647.76 28.61-3.13 56.83-7.49 84-12.89 60.87-12.1 137.44-18.53 196.67-40.78-35 58.65-71.3 142.11-89.2 170.95-85.81 138.28-227.8 354.65-122.27 518.27 135.07 209.39 465.07 90.65 639.58-19.81 50 61.86 123.75 105.46 226.05 117.8 365.17 44.05 663.17-266.92 828.93-553.11 64.63-111.58-114.84-200.49-179.22-89.33M2136.61 1043c105.77-46.79 215.07-33.79 134.61 92.37-95.24 149.34-273.08 226.62-439.07 267.86 50-156.66 182.95-306.49 304.46-360.23m768.6 658.31c-132.52 48.82-131.61-51.93-106.83-150.83 53-110.59 414.33-660 536.06-471.39 50.48 78.2-79.46 264.25-118.92 321.57-72.66 105.54-184.92 254.45-310.31 300.65m1018.27-856c-67.42-95.42 44.53-161.36 67.07-46.46 6 30.53 6.74 63.13 4.15 96.78-28.85-9.16-53.36-25-71.22-50.32M5354.81 922c148.6-26.92 104.3 79.67 34.84 161.15-99.58 116.8-248.35 180.6-394.28 218 48.09-171.35 186.37-347.81 359.44-379.17M1528.25 698.38c115.32 57.47 204.83-121.65 89.33-179.22-115.32-57.48-204.84 121.64-89.33 179.22"/></g></g></svg>